<?xml version="1.0" encoding="utf-8"?>
<!-- Generator: Adobe Illustrator 13.0.0, SVG Export Plug-In . SVG Version: 6.00 Build 14948)  -->
<!DOCTYPE svg PUBLIC "-//W3C//DTD SVG 1.0//EN" "http://www.w3.org/TR/2001/REC-SVG-20010904/DTD/svg10.dtd">
<svg version="1.0"
	 id="svg1872" inkscape:version="0.45+devel" sodipodi:version="0.32" xmlns:rdf="http://www.w3.org/1999/02/22-rdf-syntax-ns#" xmlns:inkscape="http://www.inkscape.org/namespaces/inkscape" sodipodi:docbase="/usr/share/icons/Human/48x48/emblems" xmlns:dc="http://purl.org/dc/elements/1.1/" sodipodi:docname="emblem-cvs-controlled.svg" xmlns:svg="http://www.w3.org/2000/svg" xmlns:cc="http://creativecommons.org/ns#" xmlns:sodipodi="http://sodipodi.sourceforge.net/DTD/sodipodi-0.dtd" inkscape:output_extension="org.inkscape.output.svg.inkscape"
	 xmlns="http://www.w3.org/2000/svg" xmlns:xlink="http://www.w3.org/1999/xlink" x="0px" y="0px" width="48px" height="48px"
	 viewBox="0 0 48 48" enable-background="new 0 0 48 48" xml:space="preserve">
<sodipodi:namedview  inkscape:window-height="701" inkscape:pageshadow="2" inkscape:window-width="1024" height="48px" width="48px" id="base" showgrid="true" inkscape:current-layer="svg1872" inkscape:window-y="24" inkscape:window-x="0" inkscape:cy="10.597879" inkscape:cx="2.3755476" inkscape:zoom="12.71875" pagecolor="#ffffff" bordercolor="#666666" borderopacity="1.0" objecttolerance="10.0" gridtolerance="10.0" guidetolerance="10.0" inkscape:pageopacity="0.0">
	</sodipodi:namedview>
<g id="g16004" transform="matrix(3.3855501,0,0,3.3744962,-2.7832517,-2.6174632)">
	<path id="path1880" fill="#1E4E94" d="M15,8c0,3.866-3.167,7-7.073,7s-7.073-3.134-7.073-7c0-3.866,3.167-7,7.073-7S15,4.134,15,8
		L15,8z"/>
	
		<path id="path1876" sodipodi:type="star" sodipodi:sides="3" sodipodi:cx="5.0319409" sodipodi:cy="4.4422603" sodipodi:r1="2.387377" sodipodi:r2="1.1936886" sodipodi:arg1="1.2698761" sodipodi:arg2="2.3170736" inkscape:flatsided="true" inkscape:rounded="-5.8980598e-17" inkscape:randomized="0" fill="#FFFFFF" stroke="#FFFFFF" stroke-width="0.2617" stroke-linecap="round" stroke-linejoin="round" d="
		M3.174,5.069l9.443-0.054l-4.672,7.801L3.174,5.069z"/>
	<path id="path6404" fill="#1E4E94" stroke="#1E4E94" stroke-width="0.8802" stroke-linecap="round" d="M5.821,6.465
		C7.86,9.731,7.86,9.731,7.86,9.731"/>
	<path id="path2786" fill="#1E4E94" stroke="#1E4E94" stroke-width="0.8802" stroke-linecap="round" d="M9.943,6.426
		C7.905,9.692,7.905,9.692,7.905,9.692"/>
	<g id="g2901" transform="translate(-6.813306e-2,-0.163139)">
		<polygon id="rect2942" fill="none" points="3.817,6.69 9.036,5.23 9.941,8.462 4.722,9.923 		"/>
		<g id="layer1" transform="translate(4.12207e-2,7.47524e-2)" inkscape:label="Layer 1">
			
				<linearGradient id="path2394_1_" gradientUnits="userSpaceOnUse" x1="-61.721" y1="90.1311" x2="-66.369" y2="103.4951" gradientTransform="matrix(3.3856 0 0 -3.3745 218.6171 316.849)">
				<stop  offset="0" style="stop-color:#EEEEEC"/>
				<stop  offset="1" style="stop-color:#EEEEEC"/>
			</linearGradient>
			<path id="path2394" sodipodi:nodetypes="cscssscc" fill="url(#path2394_1_)" d="M7.943,0.864c-3.904,0-7.094,3.136-7.094,7
				c0,0.222,0.014,0.544,0.035,0.76C1.34,8.366,1.738,8.039,2.268,7.809c1.525-0.66,3.315-1.326,5.331-1.695
				c2.015-0.369,4.206-0.562,6.531-0.562c0.144,0,0.263,0.03,0.406,0.031C13.571,2.854,11.028,0.864,7.943,0.864z"/>
		</g>
	</g>
</g>
</svg>
